<svg width="736" height="323" viewBox="0 0 736 323" fill="none" xmlns="http://www.w3.org/2000/svg">
<path d="M198.1 225.55V270.35H171.85V312H123.2V270.35H7.35V225.55L88.9 67H140.7L59.5 225.55H123.2V167.45H171.85V225.55H198.1ZM348.277 316.9C317.711 316.9 293.677 305.35 276.177 282.25C258.911 258.917 250.277 228 250.277 189.5C250.277 151 258.911 120.2 276.177 97.1C293.677 73.7667 317.711 62.1 348.277 62.1C379.077 62.1 403.111 73.7667 420.377 97.1C437.644 120.2 446.277 151 446.277 189.5C446.277 228 437.644 258.917 420.377 282.25C403.111 305.35 379.077 316.9 348.277 316.9ZM311.177 249.35C319.577 262.883 331.944 269.65 348.277 269.65C364.611 269.65 376.977 262.767 385.377 249C394.011 235.233 398.327 215.4 398.327 189.5C398.327 163.367 394.011 143.417 385.377 129.65C376.977 115.883 364.611 109 348.277 109C331.944 109 319.577 115.883 311.177 129.65C302.777 143.417 298.577 163.367 298.577 189.5C298.577 215.633 302.777 235.583 311.177 249.35ZM691.586 225.55V270.35H665.336V312H616.686V270.35H500.836V225.55L582.386 67H634.186L552.986 225.55H616.686V167.45H665.336V225.55H691.586Z" fill="#F7F7F7"/>
<path d="M215.1 225.55V270.35H188.85V312H140.2V270.35H24.35V225.55L105.9 67H157.7L76.5 225.55H140.2V167.45H188.85V225.55H215.1ZM365.277 316.9C334.711 316.9 310.677 305.35 293.177 282.25C275.911 258.917 267.277 228 267.277 189.5C267.277 151 275.911 120.2 293.177 97.1C310.677 73.7667 334.711 62.1 365.277 62.1C396.077 62.1 420.111 73.7667 437.377 97.1C454.644 120.2 463.277 151 463.277 189.5C463.277 228 454.644 258.917 437.377 282.25C420.111 305.35 396.077 316.9 365.277 316.9ZM328.177 249.35C336.577 262.883 348.944 269.65 365.277 269.65C381.611 269.65 393.977 262.767 402.377 249C411.011 235.233 415.327 215.4 415.327 189.5C415.327 163.367 411.011 143.417 402.377 129.65C393.977 115.883 381.611 109 365.277 109C348.944 109 336.577 115.883 328.177 129.65C319.777 143.417 315.577 163.367 315.577 189.5C315.577 215.633 319.777 235.583 328.177 249.35ZM708.586 225.55V270.35H682.336V312H633.686V270.35H517.836V225.55L599.386 67H651.186L569.986 225.55H633.686V167.45H682.336V225.55H708.586Z" fill="#FA8C62"/>
</svg>
