<svg width="374" height="371" viewBox="0 0 374 371" fill="none" xmlns="http://www.w3.org/2000/svg">
<path d="M157.237 17.9786C175.722 7.38077 198.44 7.38078 216.924 17.9786L318.317 76.1111C336.969 86.8053 348.473 106.662 348.473 128.163V243.706C348.473 265.206 336.969 285.063 318.317 295.757L216.924 353.89C198.44 364.488 175.722 364.488 157.237 353.89L55.8446 295.757C37.1923 285.063 25.688 265.206 25.688 243.706V128.163C25.688 106.662 37.1924 86.8053 55.8446 76.1111L157.237 17.9786Z" fill="#F7F7F7"/>
<path d="M108.169 229.109H100.889V233.425H107.961V236.857H100.889V243.877H97.3008V225.677H108.169V229.109ZM113.981 233.113C114.293 232.281 114.805 231.657 115.515 231.241C116.243 230.825 117.049 230.617 117.933 230.617V234.361C116.911 234.24 115.992 234.448 115.177 234.985C114.38 235.522 113.981 236.415 113.981 237.663V243.877H110.627V230.877H113.981V233.113ZM130.488 242.265C129.154 243.582 127.524 244.241 125.6 244.241C123.676 244.241 122.047 243.582 120.712 242.265C119.395 240.93 118.736 239.301 118.736 237.377C118.736 235.453 119.395 233.832 120.712 232.515C122.047 231.18 123.676 230.513 125.6 230.513C127.524 230.513 129.154 231.18 130.488 232.515C131.823 233.832 132.49 235.453 132.49 237.377C132.49 239.301 131.823 240.93 130.488 242.265ZM123.078 239.951C123.754 240.627 124.595 240.965 125.6 240.965C126.606 240.965 127.446 240.627 128.122 239.951C128.798 239.275 129.136 238.417 129.136 237.377C129.136 236.337 128.798 235.479 128.122 234.803C127.446 234.127 126.606 233.789 125.6 233.789C124.595 233.789 123.754 234.127 123.078 234.803C122.42 235.479 122.09 236.337 122.09 237.377C122.09 238.417 122.42 239.275 123.078 239.951ZM142.078 230.513C143.499 230.513 144.669 230.99 145.588 231.943C146.524 232.896 146.992 234.214 146.992 235.895V243.877H143.638V236.311C143.638 235.444 143.404 234.786 142.936 234.335C142.468 233.867 141.844 233.633 141.064 233.633C140.197 233.633 139.504 233.902 138.984 234.439C138.464 234.976 138.204 235.782 138.204 236.857V243.877H134.85V230.877H138.204V232.333C139.019 231.12 140.31 230.513 142.078 230.513ZM157.292 234.101H154.354V239.509C154.354 239.96 154.466 240.289 154.692 240.497C154.917 240.705 155.246 240.826 155.68 240.861C156.113 240.878 156.65 240.87 157.292 240.835V243.877C154.986 244.137 153.357 243.92 152.404 243.227C151.468 242.534 151 241.294 151 239.509V234.101H148.738V230.877H151V228.251L154.354 227.237V230.877H157.292V234.101ZM159.736 237.637V234.413H169.486V237.637H159.736ZM176.451 240.445H184.121V243.877H172.863V225.677H183.991V229.109H176.451V232.983H183.341V236.363H176.451V240.445ZM193.722 230.513C195.144 230.513 196.314 230.99 197.232 231.943C198.168 232.896 198.636 234.214 198.636 235.895V243.877H195.282V236.311C195.282 235.444 195.048 234.786 194.58 234.335C194.112 233.867 193.488 233.633 192.708 233.633C191.842 233.633 191.148 233.902 190.628 234.439C190.108 234.976 189.848 235.782 189.848 236.857V243.877H186.494V230.877H189.848V232.333C190.663 231.12 191.954 230.513 193.722 230.513ZM211.354 225.677H214.708V243.877H211.354V242.343C210.366 243.608 208.962 244.241 207.142 244.241C205.392 244.241 203.892 243.582 202.644 242.265C201.414 240.93 200.798 239.301 200.798 237.377C200.798 235.453 201.414 233.832 202.644 232.515C203.892 231.18 205.392 230.513 207.142 230.513C208.962 230.513 210.366 231.146 211.354 232.411V225.677ZM205.166 240.029C205.86 240.705 206.726 241.043 207.766 241.043C208.806 241.043 209.664 240.705 210.34 240.029C211.016 239.336 211.354 238.452 211.354 237.377C211.354 236.302 211.016 235.427 210.34 234.751C209.664 234.058 208.806 233.711 207.766 233.711C206.726 233.711 205.86 234.058 205.166 234.751C204.49 235.427 204.152 236.302 204.152 237.377C204.152 238.452 204.49 239.336 205.166 240.029ZM228.228 243.877L223.132 225.677H226.902L230.386 239.171L234.182 225.677H237.25L241.072 239.171L244.556 225.677H248.326L243.23 243.877H239.148L235.716 231.865L232.31 243.877H228.228ZM251.535 238.755C251.986 240.384 253.208 241.199 255.201 241.199C256.484 241.199 257.455 240.766 258.113 239.899L260.817 241.459C259.535 243.314 257.645 244.241 255.149 244.241C253 244.241 251.275 243.591 249.975 242.291C248.675 240.991 248.025 239.353 248.025 237.377C248.025 235.418 248.667 233.789 249.949 232.489C251.232 231.172 252.879 230.513 254.889 230.513C256.796 230.513 258.365 231.172 259.595 232.489C260.843 233.806 261.467 235.436 261.467 237.377C261.467 237.81 261.424 238.27 261.337 238.755H251.535ZM251.483 236.155H258.113C257.923 235.271 257.524 234.612 256.917 234.179C256.328 233.746 255.652 233.529 254.889 233.529C253.988 233.529 253.243 233.763 252.653 234.231C252.064 234.682 251.674 235.323 251.483 236.155ZM271.375 230.513C273.126 230.513 274.616 231.18 275.847 232.515C277.095 233.832 277.719 235.453 277.719 237.377C277.719 239.301 277.095 240.93 275.847 242.265C274.616 243.582 273.126 244.241 271.375 244.241C269.555 244.241 268.151 243.608 267.163 242.343V243.877H263.809V225.677H267.163V232.411C268.151 231.146 269.555 230.513 271.375 230.513ZM268.177 240.029C268.853 240.705 269.711 241.043 270.751 241.043C271.791 241.043 272.649 240.705 273.325 240.029C274.018 239.336 274.365 238.452 274.365 237.377C274.365 236.302 274.018 235.427 273.325 234.751C272.649 234.058 271.791 233.711 270.751 233.711C269.711 233.711 268.853 234.058 268.177 234.751C267.501 235.427 267.163 236.302 267.163 237.377C267.163 238.452 267.501 239.336 268.177 240.029ZM115.002 257.677C117.498 257.677 119.578 258.552 121.242 260.303C122.924 262.054 123.764 264.212 123.764 266.777C123.764 269.342 122.924 271.5 121.242 273.251C119.578 275.002 117.498 275.877 115.002 275.877H107.774V257.677H115.002ZM115.002 272.445C116.58 272.445 117.862 271.925 118.85 270.885C119.838 269.828 120.332 268.458 120.332 266.777C120.332 265.096 119.838 263.735 118.85 262.695C117.862 261.638 116.58 261.109 115.002 261.109H111.362V272.445H115.002ZM128.988 270.755C129.438 272.384 130.66 273.199 132.654 273.199C133.936 273.199 134.907 272.766 135.566 271.899L138.27 273.459C136.987 275.314 135.098 276.241 132.602 276.241C130.452 276.241 128.728 275.591 127.428 274.291C126.128 272.991 125.478 271.353 125.478 269.377C125.478 267.418 126.119 265.789 127.402 264.489C128.684 263.172 130.331 262.513 132.342 262.513C134.248 262.513 135.817 263.172 137.048 264.489C138.296 265.806 138.92 267.436 138.92 269.377C138.92 269.81 138.876 270.27 138.79 270.755H128.988ZM128.936 268.155H135.566C135.375 267.271 134.976 266.612 134.37 266.179C133.78 265.746 133.104 265.529 132.342 265.529C131.44 265.529 130.695 265.763 130.106 266.231C129.516 266.682 129.126 267.323 128.936 268.155ZM149.307 262.877H152.999L148.059 275.877H144.237L139.297 262.877H142.989L146.135 271.977L149.307 262.877ZM156.943 270.755C157.393 272.384 158.615 273.199 160.609 273.199C161.891 273.199 162.862 272.766 163.521 271.899L166.225 273.459C164.942 275.314 163.053 276.241 160.557 276.241C158.407 276.241 156.683 275.591 155.383 274.291C154.083 272.991 153.433 271.353 153.433 269.377C153.433 267.418 154.074 265.789 155.357 264.489C156.639 263.172 158.286 262.513 160.297 262.513C162.203 262.513 163.772 263.172 165.003 264.489C166.251 265.806 166.875 267.436 166.875 269.377C166.875 269.81 166.831 270.27 166.745 270.755H156.943ZM156.891 268.155H163.521C163.33 267.271 162.931 266.612 162.325 266.179C161.735 265.746 161.059 265.529 160.297 265.529C159.395 265.529 158.65 265.763 158.061 266.231C157.471 266.682 157.081 267.323 156.891 268.155ZM169.216 275.877V256.897H172.57V275.877H169.216ZM186.716 274.265C185.381 275.582 183.752 276.241 181.828 276.241C179.904 276.241 178.275 275.582 176.94 274.265C175.623 272.93 174.964 271.301 174.964 269.377C174.964 267.453 175.623 265.832 176.94 264.515C178.275 263.18 179.904 262.513 181.828 262.513C183.752 262.513 185.381 263.18 186.716 264.515C188.051 265.832 188.718 267.453 188.718 269.377C188.718 271.301 188.051 272.93 186.716 274.265ZM179.306 271.951C179.982 272.627 180.823 272.965 181.828 272.965C182.833 272.965 183.674 272.627 184.35 271.951C185.026 271.275 185.364 270.417 185.364 269.377C185.364 268.337 185.026 267.479 184.35 266.803C183.674 266.127 182.833 265.789 181.828 265.789C180.823 265.789 179.982 266.127 179.306 266.803C178.647 267.479 178.318 268.337 178.318 269.377C178.318 270.417 178.647 271.275 179.306 271.951ZM198.643 262.513C200.394 262.513 201.885 263.18 203.115 264.515C204.363 265.832 204.987 267.453 204.987 269.377C204.987 271.301 204.363 272.93 203.115 274.265C201.885 275.582 200.394 276.241 198.643 276.241C196.823 276.241 195.419 275.608 194.431 274.343V281.077H191.077V262.877H194.431V264.411C195.419 263.146 196.823 262.513 198.643 262.513ZM195.445 272.029C196.121 272.705 196.979 273.043 198.019 273.043C199.059 273.043 199.917 272.705 200.593 272.029C201.287 271.336 201.633 270.452 201.633 269.377C201.633 268.302 201.287 267.427 200.593 266.751C199.917 266.058 199.059 265.711 198.019 265.711C196.979 265.711 196.121 266.058 195.445 266.751C194.769 267.427 194.431 268.302 194.431 269.377C194.431 270.452 194.769 271.336 195.445 272.029ZM221.731 262.513C223.222 262.513 224.409 262.998 225.293 263.969C226.194 264.94 226.645 266.24 226.645 267.869V275.877H223.291V268.103C223.291 267.323 223.1 266.716 222.719 266.283C222.338 265.85 221.8 265.633 221.107 265.633C220.344 265.633 219.746 265.884 219.313 266.387C218.897 266.89 218.689 267.618 218.689 268.571V275.877H215.335V268.103C215.335 267.323 215.144 266.716 214.763 266.283C214.382 265.85 213.844 265.633 213.151 265.633C212.406 265.633 211.808 265.884 211.357 266.387C210.924 266.89 210.707 267.618 210.707 268.571V275.877H207.353V262.877H210.707V264.255C211.487 263.094 212.692 262.513 214.321 262.513C215.916 262.513 217.094 263.137 217.857 264.385C218.724 263.137 220.015 262.513 221.731 262.513ZM232.327 270.755C232.778 272.384 234 273.199 235.993 273.199C237.276 273.199 238.247 272.766 238.905 271.899L241.609 273.459C240.327 275.314 238.437 276.241 235.941 276.241C233.792 276.241 232.067 275.591 230.767 274.291C229.467 272.991 228.817 271.353 228.817 269.377C228.817 267.418 229.459 265.789 230.741 264.489C232.024 263.172 233.671 262.513 235.681 262.513C237.588 262.513 239.157 263.172 240.387 264.489C241.635 265.806 242.259 267.436 242.259 269.377C242.259 269.81 242.216 270.27 242.129 270.755H232.327ZM232.275 268.155H238.905C238.715 267.271 238.316 266.612 237.709 266.179C237.12 265.746 236.444 265.529 235.681 265.529C234.78 265.529 234.035 265.763 233.445 266.231C232.856 266.682 232.466 267.323 232.275 268.155ZM251.829 262.513C253.25 262.513 254.42 262.99 255.339 263.943C256.275 264.896 256.743 266.214 256.743 267.895V275.877H253.389V268.311C253.389 267.444 253.155 266.786 252.687 266.335C252.219 265.867 251.595 265.633 250.815 265.633C249.948 265.633 249.255 265.902 248.735 266.439C248.215 266.976 247.955 267.782 247.955 268.857V275.877H244.601V262.877H247.955V264.333C248.77 263.12 250.061 262.513 251.829 262.513ZM267.043 266.101H264.105V271.509C264.105 271.96 264.217 272.289 264.443 272.497C264.668 272.705 264.997 272.826 265.431 272.861C265.864 272.878 266.401 272.87 267.043 272.835V275.877C264.737 276.137 263.108 275.92 262.155 275.227C261.219 274.534 260.751 273.294 260.751 271.509V266.101H258.489V262.877H260.751V260.251L264.105 259.237V262.877H267.043V266.101Z" fill="#E57347"/>
<rect x="125.372" y="97.9111" width="123.222" height="97.5334" stroke="#264E5E" stroke-width="6"/>
<line x1="126.264" y1="110.315" x2="236.806" y2="110.315" stroke="#264E5E" stroke-width="5"/>
<line x1="136.384" y1="124.328" x2="154.289" y2="124.328" stroke="#264E5E" stroke-width="5"/>
<line x1="136.384" y1="136.004" x2="150.396" y2="136.004" stroke="#264E5E" stroke-width="5"/>
<line x1="155.845" y1="136.004" x2="164.408" y2="136.004" stroke="#264E5E" stroke-width="5"/>
<line x1="132.492" y1="104.088" x2="137.162" y2="104.088" stroke="#264E5E" stroke-width="5"/>
<line x1="141.833" y1="104.088" x2="146.504" y2="104.088" stroke="#264E5E" stroke-width="5"/>
<line x1="150.396" y1="104.088" x2="155.067" y2="104.088" stroke="#264E5E" stroke-width="5"/>
<line x1="136.384" y1="147.681" x2="160.516" y2="147.681" stroke="#264E5E" stroke-width="5"/>
<line x1="166.743" y1="147.681" x2="179.977" y2="147.681" stroke="#264E5E" stroke-width="5"/>
<line x1="137.163" y1="159.357" x2="145.726" y2="159.357" stroke="#264E5E" stroke-width="5"/>
<line x1="151.953" y1="159.357" x2="170.636" y2="159.357" stroke="#264E5E" stroke-width="5"/>
<line x1="136.384" y1="171.034" x2="148.839" y2="171.034" stroke="#264E5E" stroke-width="5"/>
<line x1="155.845" y1="171.034" x2="164.408" y2="171.034" stroke="#264E5E" stroke-width="5"/>
<line x1="171.414" y1="171.034" x2="183.091" y2="171.034" stroke="#264E5E" stroke-width="5"/>
<line x1="136.384" y1="182.711" x2="164.408" y2="182.711" stroke="#264E5E" stroke-width="5"/>
<line x1="170.636" y1="182.711" x2="177.642" y2="182.711" stroke="#264E5E" stroke-width="5"/>
<line x1="218.913" y1="147.143" x2="209.572" y2="172.832" stroke="#264E5E" stroke-width="5"/>
<path d="M224.349 149.792L232.912 159.911L225.127 169.642" stroke="#264E5E" stroke-width="5"/>
<path d="M201.384 150.57L193.211 159.522L200.606 169.642" stroke="#264E5E" stroke-width="5"/>
</svg>
