<svg width="199" height="151" viewBox="0 0 199 151" fill="none" xmlns="http://www.w3.org/2000/svg">
<path d="M57.0748 45.3481L53.4429 107.86L132.332 96.5881L140 44.5271L57.0748 45.3481Z" fill="#8D436D"/>
<path d="M57.5136 45.3483L1.58789 45.7571L7.84321 105.401L52.7047 107.86L57.5136 45.3483Z" fill="#F05B6D"/>
<path d="M1.77757 47.5529L7.67087 103.698C7.7207 104.173 7.93555 104.615 8.27686 104.943C8.61818 105.272 9.0636 105.466 9.53316 105.491L53.4416 107.857L130.78 96.8054C131.229 96.7417 131.644 96.5323 131.966 96.2086C132.287 95.8849 132.497 95.4642 132.563 95.0094L139.613 47.1047C139.66 46.7864 139.639 46.4616 139.55 46.1527C139.461 45.8438 139.307 45.5581 139.099 45.3155C138.891 45.0728 138.633 44.8789 138.344 44.7473C138.055 44.6156 137.741 44.5492 137.425 44.5527L57.0736 45.3481L3.36035 45.7449C3.13613 45.7475 2.9149 45.7976 2.71085 45.892C2.50679 45.9865 2.32442 46.1232 2.1754 46.2934C2.02639 46.4636 1.91403 46.6635 1.84552 46.8804C1.77701 47.0973 1.75387 47.3264 1.77757 47.5529V47.5529Z" stroke="#6E3725" stroke-width="2.5" stroke-miterlimit="10"/>
<path d="M1.61795 43.9505L5.89312 29.6135L16.3495 20.1L30.1314 17.6797L36.5 18L42.2986 20.7602L50.5913 28.7788L55.6141 38.7302L56.3347 44.7989L1 45.2077L1.61795 43.9505Z" fill="#F05B6D"/>
<path d="M39.3848 17.9945L48.0631 25.3768L55.2563 35.4788L56.3339 44.799L139.111 43.576L138.512 36.3921L136.415 30.1199L131.601 24.7183L127.219 22.5443L39.3848 17.9945Z" fill="#B4476D"/>
<path d="M138.803 38.212C138.399 35.5094 137.898 32.1723 135.698 28.9584C133.278 25.428 130.035 23.485 128.121 22.7204C127.524 22.6018 126.92 22.5269 126.312 22.4963L29.3001 17.4659C23.0296 17.1238 16.291 19.0412 10.8709 23.7124C3.35609 30.1865 1.91981 39.4315 1.6504 43.4203C1.63484 43.6478 1.66576 43.8761 1.74123 44.0909C1.8167 44.3057 1.93508 44.5023 2.08894 44.6684C2.2428 44.8345 2.42881 44.9665 2.63528 45.0561C2.84176 45.1456 3.06424 45.1908 3.28874 45.1889L55.0572 44.8331L137.681 43.5999C137.874 43.5972 138.065 43.5558 138.242 43.4781C138.419 43.4004 138.579 43.2879 138.713 43.147C138.847 43.0062 138.953 42.8398 139.023 42.6574C139.094 42.4751 139.128 42.2803 139.124 42.0844C139.102 40.7878 138.994 39.4941 138.803 38.212V38.212Z" stroke="#6E3725" stroke-width="2.5" stroke-miterlimit="10"/>
<path d="M57.0748 45.3483L53.4429 107.86" stroke="#6E3725" stroke-width="2.5" stroke-miterlimit="10"/>
<path d="M56.3376 44.7989C56.3561 44.3012 56.3545 43.8599 56.3376 43.3741C55.9268 32.5675 46.4301 22.9034 40.9864 19.9717C40.9864 19.9717 37.4875 17.6797 34.0054 17.6797" stroke="#6E3725" stroke-width="2" stroke-miterlimit="10"/>
<path d="M59.2656 14.1835C59.2656 14.1835 59.2656 12.8802 59.2656 10.8054C59.2656 5.33195 70.9074 4.89066 74.6572 5.01723C86.5247 5.4209 91.9381 7.63422 92.1923 10.4599C92.3304 11.9993 92.2816 15.8427 92.2816 15.8427" stroke="#6E3725" stroke-width="4" stroke-miterlimit="10" stroke-linecap="round"/>
<g clip-path="url(#clip0_2089_2712)">
<path d="M187.629 115.269C187.629 115.269 187.636 122.436 187.011 122.474C186.393 122.545 137.926 135.714 134.783 135.577C132.173 135.45 81.6708 118.463 81.0832 117.334C80.4956 116.204 80.1586 112.611 81.5184 111.022C82.8837 109.466 187.629 115.269 187.629 115.269Z" fill="#F48521"/>
<path d="M182.288 117.06L136.209 129.232C135.542 129.41 134.81 129.4 134.137 129.148L86.2769 112.68C85.5019 112.412 85.6998 111.217 86.5392 111.275L182.152 115.656C182.954 115.688 183.084 116.861 182.288 117.06Z" fill="#F48521"/>
<path d="M185.299 109.288C187.124 110.475 188.078 112.406 188.078 112.406C188.428 113.111 188.898 114.127 188.543 115.182C188.146 116.377 187.012 116.932 186.614 117.132C186.151 117.342 185.645 117.493 182.826 117.501C181.136 117.519 180.631 117.471 179.415 117.542C177.316 117.695 176.762 117.954 176.391 118.314C176.021 118.675 175.596 119.311 175.527 120.085C175.468 120.726 175.678 120.989 175.534 121.71C175.491 121.85 175.389 122.432 174.997 122.862C174.39 123.595 173.383 123.73 172.727 123.774C169.978 124.002 167.335 123.483 166.652 123.365C163.875 122.835 163.39 122.518 161.949 122.627C161.324 122.665 160.146 122.763 158.861 123.41C157.328 124.165 157.038 125.01 155.823 126.077C154.087 127.596 152.204 128.044 150.327 128.525C147.97 129.119 146.055 129.573 143.913 128.87C143.208 128.623 143.014 128.456 138.579 126.545C138.078 126.33 137.615 126.142 136.975 126.084C135.398 125.983 134.431 126.942 133.199 127.712C132.78 127.982 129.08 130.261 125.496 129.468C124.909 129.334 123.429 129.018 122.255 127.755C121.291 126.755 121.473 126.061 119.9 123.404C119.059 121.952 118.579 121.468 118.262 121.157C117.982 120.872 117.05 120.066 115.683 119.631C115.123 119.459 113.977 119.154 111.013 119.684C107.118 120.403 106.554 121.394 104.342 121.068C102.846 120.854 101.774 120.204 101.365 119.94C100.881 119.623 99.7286 118.887 98.9955 117.484C98.1385 115.935 98.6867 115.246 97.7978 114.1C97.0382 113.133 95.9778 112.746 95.4881 112.596C94.896 112.43 94.2234 112.377 92.1201 112.895C89.0914 113.635 89.0112 114.146 87.5908 114.185C86.0035 114.219 84.8139 113.655 83.6188 113.059C82.3914 112.469 80.7226 111.62 79.9246 109.829C79.752 109.393 79.2775 108.345 79.6748 107.349C79.9807 106.601 80.653 106.256 81.2284 105.927C83.3418 104.677 84.379 103.341 84.8522 102.996C90.2614 99.0364 178.359 104.71 185.299 109.288Z" fill="#F48521"/>
<path d="M186.65 109.427L178.56 112.84C178.56 112.84 137.258 123.614 135.972 123.265C134.685 122.917 82.6864 105.517 82.6864 105.517L82.4238 100.981L88.0644 102.757L186.65 109.427Z" fill="#F48521"/>
<path d="M83.057 93.4742L82.3128 103.09C82.3128 103.09 83.9713 104.471 85.6937 105.046C87.4429 105.582 94.8643 107.092 96.3657 107.338C97.8994 107.579 108.097 108.425 109.334 108.284C110.571 108.143 107.768 102.307 107.768 102.307L94.1017 91.6559L83.0624 93.5065L83.057 93.4742Z" fill="#F48521"/>
<path d="M83.1485 93.4258L83.1022 95.7234C83.1022 95.7234 85.0513 97.056 86.413 97.4582C87.7478 97.8982 90.24 98.9074 92.8982 99.1255C95.5565 99.3435 99.1536 96.6498 99.1536 96.6498L89.0917 90.8698L83.1485 93.4258Z" fill="#F48521"/>
<path d="M149.91 114.557C151.664 114.528 154.381 114.504 157.787 114.431C157.787 114.431 159.638 114.386 164.658 113.843C165.927 113.697 167.036 113.578 168.203 112.818C169.461 112.009 170.165 110.863 170.541 110.136L170.661 100.956L157.266 98.0582L149.169 105.19L149.91 114.557Z" fill="#F48521"/>
<path d="M107.043 103.922L107.237 110.427C107.254 111.121 107.691 111.745 108.331 112.003C110.005 112.685 113.434 113.935 117.556 114.372C123.308 115.034 132.392 115.967 136.411 115.791C140.43 115.615 144.169 115.154 147.699 114.828C151.228 114.502 153.928 113.385 154.068 112.831C154.239 112.271 154.097 109.441 154.097 109.441L153.937 106.116C153.943 105.949 153.948 105.783 153.985 105.61C154.146 104.986 153.941 104.357 153.467 103.905L153.149 103.593C152.875 103.341 152.514 103.169 152.111 103.137L115.487 100.051C115.25 100.024 115.024 100.062 114.804 100.132L108.247 102.194C107.526 102.447 107.015 103.164 107.043 103.922Z" fill="#F48521"/>
<path d="M107.305 102.319C108 103.297 108.722 104.238 109.417 105.217C109.417 105.217 111.926 106.721 116.285 107.384C120.644 108.047 128.128 108.153 129.936 107.85C131.711 107.552 119.424 98.5944 119.424 98.5944L107.305 102.319Z" fill="#F48521"/>
<path d="M186.849 98.7404C187.436 99.2725 188.282 100.16 188.697 101.45C188.956 102.204 188.876 102.516 188.953 104.361C189.086 107.923 189.361 108.574 188.802 109.398C188.211 110.227 187.232 110.524 186.398 110.697C182.272 111.621 178.634 111.5 175.363 111.385C173.964 111.354 171.898 111.302 169.38 111.326L169.69 103.874C169.69 103.874 169.565 102.733 168.354 102.239C167.111 101.751 157.907 98.714 157.907 98.714L167.465 95.5519L186.849 98.7404Z" fill="#F48521"/>
<path d="M188.871 102.484C188.672 102.882 187.413 103.093 185.52 103.477C183.626 103.861 179.699 104.386 177.186 104.442C174.673 104.499 173.285 104.532 173.285 104.532L169.927 104.299C170.106 105.364 166.453 105.744 164.387 106.09C162.321 106.437 159.626 106.59 157.646 106.656C155.671 106.755 154.159 106.842 154.159 106.842" fill="#F48521"/>
<path d="M185.155 88.4381C186.797 89.1253 187.853 90.2757 187.853 90.2757C188.418 90.8778 188.715 91.4586 188.903 91.7921C189.243 92.432 189.965 93.7711 189.94 95.6006C189.916 98.2264 188.389 100.009 188.137 100.283C186.433 102.195 184.012 102.8 182.166 102.678C180.923 102.588 180.665 102.233 177.58 100.858C174.534 99.5108 172.628 98.6355 170.153 98.1213C167.3 97.5375 165.03 97.6527 163.921 97.7721C162.42 97.9242 160.887 98.0817 159.145 98.9711C158.166 99.4671 157.22 100.356 155.29 102.106C154.107 103.167 153.075 104.137 151.887 105.564C150.586 107.109 150.802 107.206 149.936 108.181C147.926 110.443 145.538 111.44 144.016 112.06C142.773 112.567 141.316 113.177 139.255 113.356C138.206 113.433 135.72 113.65 133.137 112.49C131.629 111.814 129.987 110.131 126.69 106.702C125.527 105.503 124.385 104.234 122.409 103.138C120.907 102.295 119.88 102.102 119.535 102.027C117.587 101.69 115.989 102.257 115.048 102.58C114.198 102.856 108.696 104.674 103.573 104.604C101.179 104.574 99.5484 104.548 98.0031 103.447C95.7471 101.867 94.2481 98.4677 93.9785 97.8492C93.4392 96.6121 93.0722 95.4126 91.8284 94.526C91.5269 94.311 90.7785 93.806 89.6969 93.6886C88.314 93.5554 87.8735 94.293 85.5979 94.774C84.253 95.0658 83.5483 95.2172 82.9184 94.825C81.9224 94.2287 81.8886 92.6414 81.8823 91.6137C81.8439 85.2484 81.8409 82.0631 83.2657 80.8619C87.5775 77.285 98.6245 89.1389 118.178 94.7216C123.651 96.2929 131.041 98.4059 140.505 97.649C155.989 96.3807 181.77 87.0477 185.155 88.4381Z" fill="#F48521"/>
<path d="M185.378 84.2195L135.919 95.8293C135.569 95.9211 135.236 95.9107 134.918 95.798C129.627 94.1296 84.7926 79.4776 83.8287 78.6768C83.3279 78.263 82.5308 77.4674 83.5149 76.8046C84.2569 76.282 134.318 64.3057 136.465 64.4435C137.471 64.5071 186.736 81.2373 186.866 82.012C187.039 83.0449 186.367 83.9872 185.378 84.2195Z" fill="#F48521"/>
<path d="M187.04 83.8412L186.775 88.3989C186.722 89.0715 186.254 89.6477 185.587 89.8259C178.255 91.6192 136.877 101.742 135.618 101.953C134.23 102.185 134.709 102.271 133.541 101.836C132.728 101.541 90.8906 86.9509 83.845 84.5148C83.2422 84.284 82.7897 83.7625 82.6815 83.1169C82.6598 82.9878 82.6328 82.8264 82.6003 82.6327C82.3189 80.9542 82.5654 79.8509 82.6294 79.2429C82.6613 78.8393 82.6986 78.468 82.8327 78.0805L82.9186 77.8006C82.9883 77.623 83.1712 77.5259 83.3488 77.5957L94.8834 81.6687L134.45 95.5778C134.52 95.5993 134.552 95.5939 134.616 95.5831C135.714 95.3991 146.958 93.3814 152.686 91.7241C158.292 90.1208 182.908 84.3348 186.544 83.4597C186.873 83.4378 187.066 83.6045 187.04 83.8412Z" fill="#F48521"/>
<path d="M187.629 115.269C187.629 115.269 187.636 122.436 187.011 122.474C186.393 122.545 137.926 135.714 134.783 135.577C132.173 135.45 81.6708 118.463 81.0832 117.334C80.4956 116.204 80.1586 112.611 81.5184 111.022C82.8837 109.466 187.629 115.269 187.629 115.269Z" fill="#F7B762" stroke="#6F3725" stroke-width="1.4" stroke-miterlimit="10"/>
<path d="M182.288 117.06L136.209 129.232C135.542 129.41 134.81 129.4 134.137 129.148L86.2769 112.68C85.5019 112.412 85.6998 111.217 86.5392 111.275L182.152 115.656C182.954 115.688 183.084 116.861 182.288 117.06Z" fill="#F8CD86" stroke="#6F3725" stroke-width="1.4" stroke-miterlimit="10"/>
<path d="M185.299 109.288C187.124 110.475 188.078 112.406 188.078 112.406C188.428 113.111 188.898 114.127 188.543 115.182C188.146 116.377 187.012 116.932 186.614 117.132C186.151 117.342 185.645 117.493 182.826 117.501C181.136 117.519 180.631 117.471 179.415 117.542C177.316 117.695 176.762 117.954 176.391 118.314C176.021 118.675 175.596 119.311 175.527 120.085C175.468 120.726 175.678 120.989 175.534 121.71C175.491 121.85 175.389 122.432 174.997 122.862C174.39 123.595 173.383 123.73 172.727 123.774C169.978 124.002 167.335 123.483 166.652 123.365C163.875 122.835 163.39 122.518 161.949 122.627C161.324 122.665 160.146 122.763 158.861 123.41C157.328 124.165 157.038 125.01 155.823 126.077C154.087 127.596 152.204 128.044 150.327 128.525C147.97 129.119 146.055 129.573 143.913 128.87C143.208 128.623 143.014 128.456 138.579 126.545C138.078 126.33 137.615 126.142 136.975 126.084C135.398 125.983 134.431 126.942 133.199 127.712C132.78 127.982 129.08 130.261 125.496 129.468C124.909 129.334 123.429 129.018 122.255 127.755C121.291 126.755 121.473 126.061 119.9 123.404C119.059 121.952 118.579 121.468 118.262 121.157C117.982 120.872 117.05 120.066 115.683 119.631C115.123 119.459 113.977 119.154 111.013 119.684C107.118 120.403 106.554 121.394 104.342 121.068C102.846 120.854 101.774 120.204 101.365 119.94C100.881 119.623 99.7286 118.887 98.9955 117.484C98.1385 115.935 98.6867 115.246 97.7978 114.1C97.0382 113.133 95.9778 112.746 95.4881 112.596C94.896 112.43 94.2234 112.377 92.1201 112.895C89.0914 113.635 89.0112 114.146 87.5908 114.185C86.0035 114.219 84.8139 113.655 83.6188 113.059C82.3914 112.469 80.7226 111.62 79.9246 109.829C79.752 109.393 79.2775 108.345 79.6748 107.349C79.9807 106.601 80.653 106.256 81.2284 105.927C83.3418 104.677 84.379 103.341 84.8522 102.996C90.2614 99.0364 178.359 104.71 185.299 109.288Z" fill="#D9D937" stroke="#6F3725" stroke-width="1.4" stroke-miterlimit="10"/>
<path d="M186.65 109.427L178.56 112.84C178.56 112.84 137.258 123.614 135.972 123.265C134.685 122.917 82.6864 105.517 82.6864 105.517L82.4238 100.981L88.0644 102.757L186.65 109.427Z" fill="#F1A0B2" stroke="#6F3725" stroke-width="1.4" stroke-miterlimit="10"/>
<path d="M83.057 93.4742L82.3128 103.09C82.3128 103.09 83.9713 104.471 85.6937 105.046C87.4429 105.582 94.8643 107.092 96.3657 107.338C97.8994 107.579 108.097 108.425 109.334 108.284C110.571 108.143 107.768 102.307 107.768 102.307L94.1017 91.6559L83.0624 93.5065L83.057 93.4742Z" fill="#C8354B" stroke="#6F3725" stroke-width="1.4" stroke-miterlimit="10"/>
<path d="M83.1485 93.4258L83.1022 95.7234C83.1022 95.7234 85.0513 97.056 86.413 97.4582C87.7478 97.8982 90.24 98.9074 92.8982 99.1255C95.5565 99.3435 99.1536 96.6498 99.1536 96.6498L89.0917 90.8698L83.1485 93.4258Z" fill="#CF526B" stroke="#6F3725" stroke-width="1.4" stroke-miterlimit="10"/>
<path d="M149.91 114.557C151.664 114.528 154.381 114.504 157.787 114.431C157.787 114.431 159.638 114.386 164.658 113.843C165.927 113.697 167.036 113.578 168.203 112.818C169.461 112.009 170.165 110.863 170.541 110.136L170.661 100.956L157.266 98.0582L149.169 105.19L149.91 114.557Z" fill="#C8354B" stroke="#6F3725" stroke-width="1.4" stroke-miterlimit="10"/>
<path d="M107.043 103.922L107.237 110.427C107.254 111.121 107.691 111.745 108.331 112.003C110.005 112.685 113.434 113.935 117.556 114.372C123.308 115.034 132.392 115.967 136.411 115.791C140.43 115.615 144.169 115.154 147.699 114.828C151.228 114.502 153.928 113.385 154.068 112.831C154.239 112.271 154.097 109.441 154.097 109.441L153.937 106.116C153.943 105.949 153.948 105.783 153.985 105.61C154.146 104.986 153.941 104.357 153.467 103.905L153.149 103.593C152.875 103.341 152.514 103.169 152.111 103.137L115.487 100.051C115.25 100.024 115.024 100.062 114.804 100.132L108.247 102.194C107.526 102.447 107.015 103.164 107.043 103.922Z" fill="#B5CC34" stroke="#6F3725" stroke-width="1.4" stroke-miterlimit="10"/>
<path d="M107.305 102.319C108 103.297 108.722 104.238 109.417 105.217C109.417 105.217 111.926 106.721 116.285 107.384C120.644 108.047 128.128 108.153 129.936 107.85C131.711 107.552 119.424 98.5944 119.424 98.5944L107.305 102.319Z" fill="#D6E167" stroke="#6F3725" stroke-width="1.4" stroke-miterlimit="10"/>
<path d="M186.849 98.7404C187.436 99.2725 188.282 100.16 188.697 101.45C188.956 102.204 188.876 102.516 188.953 104.361C189.086 107.923 189.361 108.574 188.802 109.398C188.211 110.227 187.232 110.524 186.398 110.697C182.272 111.621 178.634 111.5 175.363 111.385C173.964 111.354 171.898 111.302 169.38 111.326L169.69 103.874C169.69 103.874 169.565 102.733 168.354 102.239C167.111 101.751 157.907 98.714 157.907 98.714L167.465 95.5519L186.849 98.7404Z" fill="#B5CC34" stroke="#6F3725" stroke-width="1.4" stroke-miterlimit="10"/>
<path d="M188.871 102.484C188.672 102.882 187.413 103.093 185.52 103.477C183.626 103.861 179.699 104.386 177.186 104.442C174.673 104.499 173.285 104.532 173.285 104.532L169.927 104.299C170.106 105.364 166.453 105.744 164.387 106.09C162.321 106.437 159.626 106.59 157.646 106.656C155.671 106.755 154.159 106.842 154.159 106.842" stroke="#6F3725" stroke-width="1.4" stroke-miterlimit="10"/>
<path d="M185.155 88.4381C186.797 89.1253 187.853 90.2757 187.853 90.2757C188.418 90.8778 188.715 91.4586 188.903 91.7921C189.243 92.432 189.965 93.7711 189.94 95.6006C189.916 98.2264 188.389 100.009 188.137 100.283C186.433 102.195 184.012 102.8 182.166 102.678C180.923 102.588 180.665 102.233 177.58 100.858C174.534 99.5108 172.628 98.6355 170.153 98.1213C167.3 97.5375 165.03 97.6527 163.921 97.7721C162.42 97.9242 160.887 98.0817 159.145 98.9711C158.166 99.4671 157.22 100.356 155.29 102.106C154.107 103.167 153.075 104.137 151.887 105.564C150.586 107.109 150.802 107.206 149.936 108.181C147.926 110.443 145.538 111.44 144.016 112.06C142.773 112.567 141.316 113.177 139.255 113.356C138.206 113.433 135.72 113.65 133.137 112.49C131.629 111.814 129.987 110.131 126.69 106.702C125.527 105.503 124.385 104.234 122.409 103.138C120.907 102.295 119.88 102.102 119.535 102.027C117.587 101.69 115.989 102.257 115.048 102.58C114.198 102.856 108.696 104.674 103.573 104.604C101.179 104.574 99.5484 104.548 98.0031 103.447C95.7471 101.867 94.2481 98.4677 93.9785 97.8492C93.4392 96.6121 93.0722 95.4126 91.8284 94.526C91.5269 94.311 90.7785 93.806 89.6969 93.6886C88.314 93.5554 87.8735 94.293 85.5979 94.774C84.253 95.0658 83.5483 95.2172 82.9184 94.825C81.9224 94.2287 81.8886 92.6414 81.8823 91.6137C81.8439 85.2484 81.8409 82.0631 83.2657 80.8619C87.5775 77.285 98.6245 89.1389 118.178 94.7216C123.651 96.2929 131.041 98.4059 140.505 97.649C155.989 96.3807 181.77 87.0477 185.155 88.4381Z" fill="#F5B11B" stroke="#6F3725" stroke-width="1.4" stroke-miterlimit="10"/>
<path d="M185.378 84.2195L135.919 95.8293C135.569 95.9211 135.236 95.9107 134.918 95.798C129.627 94.1296 84.7926 79.4776 83.8287 78.6768C83.3279 78.263 82.5308 77.4674 83.5149 76.8046C84.2569 76.282 134.318 64.3057 136.465 64.4435C137.471 64.5071 186.736 81.2373 186.866 82.012C187.039 83.0449 186.367 83.9872 185.378 84.2195Z" fill="#FDDFA0" stroke="#6F3725" stroke-width="1.4" stroke-miterlimit="10"/>
<path d="M187.04 83.8412L186.775 88.3989C186.722 89.0715 186.254 89.6477 185.587 89.8259C178.255 91.6192 136.877 101.742 135.618 101.953C134.23 102.185 134.709 102.271 133.541 101.836C132.728 101.541 90.8906 86.9509 83.845 84.5148C83.2422 84.284 82.7897 83.7625 82.6815 83.1169C82.6598 82.9878 82.6328 82.8264 82.6003 82.6327C82.3189 80.9542 82.5654 79.8509 82.6294 79.2429C82.6613 78.8393 82.6986 78.468 82.8327 78.0805L82.9186 77.8006C82.9883 77.623 83.1712 77.5259 83.3488 77.5957L94.8834 81.6687L134.45 95.5778C134.52 95.5993 134.552 95.5939 134.616 95.5831C135.714 95.3991 146.958 93.3814 152.686 91.7241C158.292 90.1208 182.908 84.3348 186.544 83.4597C186.873 83.4378 187.066 83.6045 187.04 83.8412Z" fill="#F7BF79" stroke="#6F3725" stroke-width="1.4" stroke-miterlimit="10"/>
<g style="mix-blend-mode:hard-light" opacity="0.6">
<g opacity="0.92">
<path opacity="0.92" d="M134.907 135.523C132.298 135.397 81.7949 118.409 81.2074 117.28C80.6683 116.242 80.3479 113.143 81.3525 111.415C82.1387 112.146 83.0754 112.586 83.8021 112.962C84.9649 113.564 86.16 114.16 87.7741 114.089C88.5005 114.066 88.9039 113.899 89.4955 113.667L98.9363 116.93C98.9956 117.086 99.0495 117.209 99.1465 117.392C99.9119 118.79 101.069 119.559 101.516 119.849C101.926 120.112 102.997 120.762 104.493 120.976C106.059 121.211 106.817 120.786 108.517 120.235L120.665 124.404C121.592 126.174 121.593 126.771 122.401 127.631C123.569 128.862 125.087 129.205 125.641 129.344C128.09 129.896 130.564 129.017 132.006 128.311L134.223 129.067C134.891 129.287 135.596 129.335 136.295 129.151L141.663 127.72C143.278 128.445 143.537 128.601 144.027 128.751C144.344 128.864 141.357 127.672 141.663 127.72C141.143 129.367 141.194 131.848 143.084 133.821C138.716 134.885 135.639 135.533 134.907 135.523Z" fill="#643668"/>
<path opacity="0.92" d="M95.6337 112.472C96.1235 112.622 97.1785 112.977 97.9435 113.977C98.7461 115.004 98.3916 115.66 98.9309 116.897L89.4901 113.635C90.0495 113.408 90.8294 113.112 92.298 112.766C94.3691 112.253 95.0794 112.333 95.6337 112.472Z" fill="#643668"/>
<path opacity="0.92" d="M137.094 125.998C137.729 126.024 138.192 126.212 138.698 126.459C140.022 127.033 140.953 127.441 141.669 127.753L136.3 129.184C135.633 129.362 134.902 129.352 134.229 129.1L132.011 128.343C132.721 128.025 133.167 127.718 133.318 127.626C134.544 126.823 135.549 125.891 137.094 125.998Z" fill="#643668"/>
<path opacity="0.92" d="M115.829 119.507C117.196 119.942 118.133 120.78 118.407 121.033C118.725 121.345 119.167 121.802 120.045 123.28C120.282 123.705 120.509 124.066 120.665 124.404L108.517 120.235C109.211 120.019 110.034 119.782 111.164 119.592C114.122 119.03 115.263 119.303 115.829 119.507Z" fill="#643668"/>
<path opacity="0.92" d="M141.664 127.72C140.98 127.404 140.017 127.001 138.692 126.427C138.192 126.212 137.729 126.024 137.089 125.965C135.512 125.865 134.544 126.823 133.313 127.594C133.162 127.685 132.711 127.96 132.006 128.311C130.532 129.022 128.053 129.869 125.642 129.344C125.055 129.211 123.575 128.894 122.401 127.631C121.593 126.771 121.592 126.174 120.665 124.404C120.477 124.071 120.283 123.705 120.045 123.28C119.205 121.828 118.725 121.345 118.408 121.033C118.128 120.748 117.196 119.942 115.829 119.507C115.269 119.336 114.123 119.03 111.159 119.56C110.034 119.782 109.173 119.992 108.512 120.203C106.807 120.721 106.086 121.174 104.488 120.944C102.992 120.73 101.92 120.08 101.511 119.817C101.027 119.5 99.8745 118.764 99.1414 117.36C99.0498 117.209 98.9905 117.053 98.9312 116.897C98.3919 115.66 98.7464 115.004 97.9437 113.977C97.1841 113.009 96.1238 112.623 95.634 112.472C95.042 112.306 94.3694 112.253 92.266 112.771C90.7974 113.117 90.0229 113.446 89.4581 113.64C88.8342 113.878 88.4631 114.039 87.7367 114.062C86.1495 114.095 84.9598 113.532 83.7648 112.936C83.0057 112.565 82.096 112.087 81.3151 111.388C80.8412 110.937 80.3833 110.383 80.1028 109.7C79.9303 109.264 79.4558 108.215 79.853 107.22C80.159 106.471 80.8312 106.126 81.4067 105.798C81.9175 105.48 82.3638 105.173 82.7456 104.876L82.773 105.436C82.773 105.436 134.772 122.836 136.058 123.185C136.44 123.286 134.595 123.762 140.114 122.438C140.241 125.171 139.493 124.865 141.664 127.72C141.357 127.672 144.344 128.864 144.027 128.751C143.537 128.601 143.279 128.445 141.664 127.72Z" fill="#643668"/>
<path opacity="0.92" d="M136.09 123.179C134.804 122.831 82.8051 105.43 82.8051 105.43L82.7776 104.871L82.6953 103.192C83.2284 103.601 84.5045 104.482 85.8016 104.895C87.5508 105.431 94.9721 106.942 96.4736 107.188C97.6306 107.359 103.83 107.913 107.279 108.098L107.356 110.341C107.373 111.035 107.809 111.659 108.45 111.917C110.124 112.598 113.553 113.849 117.675 114.286C123.427 114.948 132.511 115.881 136.53 115.705C139.758 115.562 137.466 116.145 140.372 115.857C140.465 117.402 140.037 120.593 140.211 122.422C140.233 122.75 140.278 119.059 140.211 122.422C134.627 123.756 136.472 123.281 136.09 123.179Z" fill="#643668"/>
<path opacity="0.92" d="M83.1885 95.6427C83.1885 95.6427 85.1376 96.9752 86.4992 97.3775C87.8341 97.8175 90.3263 98.8267 92.9845 99.0447C93.5549 99.0819 94.1736 99.0113 94.7761 98.844C95.4284 100.162 96.6679 102.21 98.2831 103.333C99.8284 104.435 101.426 104.466 103.853 104.49C104.951 104.506 106.102 104.445 107.173 104.299L107.279 108.098C103.83 107.913 97.6359 107.391 96.4735 107.188C94.9398 106.947 87.5239 105.469 85.8015 104.895C84.5044 104.482 83.2606 103.595 82.6953 103.192C82.5068 103.058 82.3937 102.977 82.3937 102.977L82.5424 100.895L83.0476 94.6044C83.0907 94.6635 83.1607 94.685 83.1984 94.7118L83.1885 95.6427Z" fill="#643668"/>
<path opacity="0.92" d="M92.9844 99.0447C90.3262 98.8266 87.834 97.8174 86.4992 97.3775C85.1644 96.9375 83.1884 95.6427 83.1884 95.6427L83.2037 94.7441C83.8336 95.1363 84.5383 94.9849 85.8832 94.6931C88.1588 94.2121 88.567 93.4799 89.9823 93.6077C91.0585 93.6928 91.8123 94.2301 92.1138 94.4451C93.3576 95.3317 93.7192 96.499 94.2584 97.736C94.3231 97.9243 94.5172 98.29 94.7706 98.8116C94.1681 98.979 93.5548 99.0818 92.9844 99.0447Z" fill="#643668"/>
<path opacity="0.92" d="M117.648 114.324C113.553 113.849 110.092 112.604 108.423 111.954C107.783 111.697 107.346 111.073 107.329 110.379L107.252 108.135L107.146 104.337C107.7 104.277 108.217 104.19 108.765 104.098C109.024 104.453 109.283 104.808 109.541 105.163C109.541 105.163 112.05 106.667 116.409 107.33C119.848 107.849 125.218 108.011 128.225 107.938C130.676 110.48 132.092 111.803 133.384 112.383C135.93 113.516 138.454 113.325 139.503 113.249C141.564 113.069 143.021 112.46 144.264 111.953C144.635 111.791 145.103 111.613 145.565 111.403C145.588 112.527 145.659 113.743 145.741 115.024C142.836 115.312 139.769 115.627 136.541 115.769C132.478 115.886 123.4 114.986 117.648 114.324Z" fill="#643668"/>
<path opacity="0.92" d="M115.328 102.467C116.27 102.143 117.835 101.582 119.815 101.914C120.16 101.989 121.155 102.187 122.69 103.025C124.665 104.121 125.802 105.357 126.971 106.588C127.418 107.078 127.854 107.502 128.252 107.9C125.25 108.005 119.875 107.811 116.436 107.292C112.077 106.629 109.568 105.125 109.568 105.125C109.31 104.77 109.051 104.415 108.792 104.061C112.026 103.552 114.731 102.667 115.328 102.467Z" fill="#643668"/>
<path opacity="0.92" d="M139.466 113.222C138.417 113.298 135.931 113.516 133.347 112.356C132.055 111.776 130.633 110.421 128.188 107.911C127.79 107.513 127.38 107.051 126.906 106.599C125.743 105.4 124.601 104.132 122.625 103.036C121.123 102.193 120.096 102 119.751 101.925C117.803 101.588 116.206 102.154 115.264 102.478C114.699 102.672 111.994 103.557 108.734 104.104C108.217 104.19 107.668 104.282 107.114 104.342C106.006 104.461 104.892 104.549 103.795 104.533C101.4 104.503 99.7699 104.478 98.2246 103.376C96.6093 102.253 95.3967 100.167 94.7175 98.8869C94.4641 98.3653 94.2701 97.9996 94.2053 97.8113C93.6661 96.5743 93.2991 95.3747 92.0553 94.4881C91.7538 94.2732 91.0054 93.7681 89.9238 93.6507C88.5408 93.5175 88.1003 94.2551 85.8248 94.7361C84.4799 95.028 83.7751 95.1793 83.1452 94.7871C83.0753 94.7656 83.0322 94.7065 82.9945 94.6796C82.1868 94.0186 82.1369 92.5336 82.1145 91.6081C82.0994 86.9646 82.1073 84.0429 82.6438 82.2937C82.66 82.3906 82.6816 82.5197 82.6979 82.6165C82.7303 82.8102 82.7574 82.9716 82.779 83.1007C82.8873 83.7463 83.3397 84.2678 83.9426 84.4986C90.9936 86.967 132.831 101.557 133.638 101.82C134.807 102.255 134.328 102.169 135.716 101.937C136.071 101.877 133.231 103.15 138.589 101.853C138.726 105.248 138.737 110.457 145.469 111.419C144.974 111.634 144.544 111.839 144.167 111.969C142.984 112.433 141.526 113.042 139.466 113.222Z" fill="#643668"/>
<path opacity="0.92" d="M133.724 96.1974L95.0341 81.5772L83.4995 77.5042C83.3919 77.4559 83.2628 77.4775 83.1768 77.5583C83.128 77.2678 83.2139 76.9879 83.6279 76.6862C84.3699 76.1636 134.431 64.1872 136.578 64.3251C136.648 64.3466 137.03 64.4484 137.66 64.6415C134.02 73.6145 132.175 85.7712 134.8 95.4861C135.329 97.4549 135.67 94.1455 135.951 95.824C131.239 96.8131 135.477 95.3725 134.8 95.4861C134.735 95.4969 133.794 96.2188 133.724 96.1974Z" fill="#643668"/>
<path opacity="0.92" d="M135.769 101.861C134.381 102.094 134.86 102.18 133.692 101.745C132.879 101.45 91.0415 86.8593 83.9959 84.4232C83.393 84.1924 82.9406 83.6709 82.8323 83.0253C82.8107 82.8962 82.7836 82.7348 82.7512 82.5412C82.7295 82.412 82.7133 82.3152 82.6971 82.2184C82.5127 80.7227 82.7108 79.7271 82.748 79.1567C82.7799 78.7532 82.8172 78.3819 82.9513 77.9943L83.0371 77.7144C83.0586 77.6445 83.1178 77.6014 83.1446 77.5637C83.2306 77.4829 83.3597 77.4612 83.4674 77.5096L95.002 81.5826L134.568 95.4917C134.638 95.5131 135.348 95.3941 135.413 95.3833C136.091 95.2696 133.417 95.1538 134.735 95.4969C135.049 97.5682 134.332 101.206 138.577 101.789C133.284 103.074 136.124 101.802 135.769 101.861Z" fill="#643668"/>
</g>
</g>
</g>
<g clip-path="url(#clip1_2089_2712)">
<path d="M165.537 6.78032C168.35 7.53599 170.557 9.87544 171.27 12.8567C171.338 13.1465 171.689 13.1465 171.758 12.8567C172.471 9.87544 174.678 7.53599 177.49 6.78032C177.764 6.70786 177.764 6.33521 177.49 6.26274C174.678 5.50708 172.471 3.16763 171.758 0.186377C171.689 -0.103467 171.338 -0.103467 171.27 0.186377C170.557 3.16763 168.35 5.50708 165.537 6.26274C165.264 6.33521 165.264 6.70786 165.537 6.78032Z" fill="#FFB636"/>
<path d="M145.654 19.492C150.615 20.8274 154.521 24.968 155.781 30.2266C155.898 30.7338 156.514 30.7338 156.641 30.2266C157.9 24.968 161.807 20.8274 166.768 19.492C167.246 19.3678 167.246 18.7157 166.768 18.5811C161.797 17.2561 157.891 13.1155 156.641 7.85686C156.523 7.34963 155.908 7.34963 155.781 7.85686C154.521 13.1155 150.615 17.2561 145.654 18.5914C145.176 18.7157 145.176 19.3678 145.654 19.492Z" fill="#FFD469"/>
<path d="M162.578 36.3029C170 38.3008 175.85 44.491 177.725 52.3582C177.91 53.1138 178.828 53.1138 179.004 52.3582C180.889 44.491 186.729 38.2904 194.15 36.3029C194.863 36.1062 194.863 35.1332 194.15 34.9469C186.729 32.949 180.879 26.7588 179.004 18.8916C178.818 18.1359 177.9 18.1359 177.725 18.8916C175.84 26.7588 170 32.9594 162.578 34.9469C161.865 35.1332 161.865 36.1062 162.578 36.3029Z" fill="#FFE1AB"/>
</g>
<defs>
<clipPath id="clip0_2089_2712">
<rect width="119.429" height="78.91" fill="white" transform="matrix(-0.986238 0.165334 0.165334 0.986238 185.579 52.5596)"/>
</clipPath>
<clipPath id="clip1_2089_2712">
<rect width="50" height="53" fill="white" transform="translate(145)"/>
</clipPath>
</defs>
</svg>
