<svg width="373" height="371" viewBox="0 0 373 371" fill="none" xmlns="http://www.w3.org/2000/svg">
<path d="M156.517 17.6026C175.001 7.0048 197.719 7.0048 216.204 17.6026L317.596 75.7352C336.249 86.4293 347.753 106.286 347.753 127.787V243.33C347.753 264.83 336.248 284.687 317.596 295.381L216.204 353.514C197.719 364.112 175.001 364.112 156.517 353.514L55.1242 295.381C36.4719 284.687 24.9675 264.83 24.9675 243.33V127.787C24.9675 106.286 36.4719 86.4293 55.1242 75.7352L156.517 17.6026Z" fill="#F7F7F7"/>
<path d="M111.319 259.364C109.291 259.364 107.627 258.792 106.327 257.648C105.027 256.504 104.377 254.97 104.377 253.046V240.8H107.939V252.76C107.939 253.713 108.207 254.467 108.745 255.022C109.299 255.577 110.157 255.854 111.319 255.854C112.48 255.854 113.329 255.577 113.867 255.022C114.421 254.467 114.699 253.713 114.699 252.76V240.8H118.287V253.046C118.287 254.97 117.637 256.504 116.337 257.648C115.037 258.792 113.364 259.364 111.319 259.364ZM124.33 249.692C124.33 250.039 124.555 250.325 125.006 250.55C125.474 250.758 126.037 250.949 126.696 251.122C127.355 251.278 128.013 251.486 128.672 251.746C129.331 251.989 129.885 252.405 130.336 252.994C130.804 253.583 131.038 254.32 131.038 255.204C131.038 256.539 130.535 257.57 129.53 258.298C128.542 259.009 127.303 259.364 125.812 259.364C123.143 259.364 121.323 258.333 120.352 256.27L123.264 254.632C123.645 255.759 124.495 256.322 125.812 256.322C127.008 256.322 127.606 255.949 127.606 255.204C127.606 254.857 127.372 254.58 126.904 254.372C126.453 254.147 125.899 253.947 125.24 253.774C124.581 253.601 123.923 253.384 123.264 253.124C122.605 252.864 122.042 252.457 121.574 251.902C121.123 251.33 120.898 250.619 120.898 249.77C120.898 248.487 121.366 247.482 122.302 246.754C123.255 246.009 124.434 245.636 125.838 245.636C126.895 245.636 127.857 245.879 128.724 246.364C129.591 246.832 130.275 247.508 130.778 248.392L127.918 249.952C127.502 249.068 126.809 248.626 125.838 248.626C125.405 248.626 125.041 248.721 124.746 248.912C124.469 249.103 124.33 249.363 124.33 249.692ZM135.851 253.878C136.302 255.507 137.524 256.322 139.517 256.322C140.8 256.322 141.771 255.889 142.429 255.022L145.133 256.582C143.851 258.437 141.961 259.364 139.465 259.364C137.316 259.364 135.591 258.714 134.291 257.414C132.991 256.114 132.341 254.476 132.341 252.5C132.341 250.541 132.983 248.912 134.265 247.612C135.548 246.295 137.195 245.636 139.205 245.636C141.112 245.636 142.681 246.295 143.911 247.612C145.159 248.929 145.783 250.559 145.783 252.5C145.783 252.933 145.74 253.393 145.653 253.878H135.851ZM135.799 251.278H142.429C142.239 250.394 141.84 249.735 141.233 249.302C140.644 248.869 139.968 248.652 139.205 248.652C138.304 248.652 137.559 248.886 136.969 249.354C136.38 249.805 135.99 250.446 135.799 251.278ZM151.479 248.236C151.791 247.404 152.302 246.78 153.013 246.364C153.741 245.948 154.547 245.74 155.431 245.74V249.484C154.408 249.363 153.489 249.571 152.675 250.108C151.877 250.645 151.479 251.538 151.479 252.786V259H148.125V246H151.479V248.236ZM164.048 240.8H167.636V259H164.048V240.8ZM178.077 245.636C179.499 245.636 180.669 246.113 181.587 247.066C182.523 248.019 182.991 249.337 182.991 251.018V259H179.637V251.434C179.637 250.567 179.403 249.909 178.935 249.458C178.467 248.99 177.843 248.756 177.063 248.756C176.197 248.756 175.503 249.025 174.983 249.562C174.463 250.099 174.203 250.905 174.203 251.98V259H170.849V246H174.203V247.456C175.018 246.243 176.309 245.636 178.077 245.636ZM193.291 249.224H190.353V254.632C190.353 255.083 190.466 255.412 190.691 255.62C190.917 255.828 191.246 255.949 191.679 255.984C192.113 256.001 192.65 255.993 193.291 255.958V259C190.986 259.26 189.357 259.043 188.403 258.35C187.467 257.657 186.999 256.417 186.999 254.632V249.224H184.737V246H186.999V243.374L190.353 242.36V246H193.291V249.224ZM198.084 253.878C198.534 255.507 199.756 256.322 201.75 256.322C203.032 256.322 204.003 255.889 204.662 255.022L207.366 256.582C206.083 258.437 204.194 259.364 201.698 259.364C199.548 259.364 197.824 258.714 196.524 257.414C195.224 256.114 194.574 254.476 194.574 252.5C194.574 250.541 195.215 248.912 196.498 247.612C197.78 246.295 199.427 245.636 201.438 245.636C203.344 245.636 204.913 246.295 206.144 247.612C207.392 248.929 208.016 250.559 208.016 252.5C208.016 252.933 207.972 253.393 207.886 253.878H198.084ZM198.032 251.278H204.662C204.471 250.394 204.072 249.735 203.466 249.302C202.876 248.869 202.2 248.652 201.438 248.652C200.536 248.652 199.791 248.886 199.202 249.354C198.612 249.805 198.222 250.446 198.032 251.278ZM213.711 248.236C214.023 247.404 214.535 246.78 215.245 246.364C215.973 245.948 216.779 245.74 217.663 245.74V249.484C216.641 249.363 215.722 249.571 214.907 250.108C214.11 250.645 213.711 251.538 213.711 252.786V259H210.357V246H213.711V248.236ZM226.619 243.66C224.781 243.521 223.863 244.258 223.863 245.87V246H226.619V249.224H223.863V259H220.509V249.224H218.637V246H220.509V245.87C220.509 244.033 221.02 242.637 222.043 241.684C223.065 240.731 224.591 240.315 226.619 240.436V243.66ZM237.554 246H240.908V259H237.554V257.466C236.548 258.731 235.136 259.364 233.316 259.364C231.582 259.364 230.092 258.705 228.844 257.388C227.613 256.053 226.998 254.424 226.998 252.5C226.998 250.576 227.613 248.955 228.844 247.638C230.092 246.303 231.582 245.636 233.316 245.636C235.136 245.636 236.548 246.269 237.554 247.534V246ZM231.366 255.152C232.042 255.828 232.9 256.166 233.94 256.166C234.98 256.166 235.838 255.828 236.514 255.152C237.207 254.459 237.554 253.575 237.554 252.5C237.554 251.425 237.207 250.55 236.514 249.874C235.838 249.181 234.98 248.834 233.94 248.834C232.9 248.834 232.042 249.181 231.366 249.874C230.69 250.55 230.352 251.425 230.352 252.5C230.352 253.575 230.69 254.459 231.366 255.152ZM250.137 259.364C248.178 259.364 246.54 258.705 245.223 257.388C243.923 256.071 243.273 254.441 243.273 252.5C243.273 250.559 243.923 248.929 245.223 247.612C246.54 246.295 248.178 245.636 250.137 245.636C251.402 245.636 252.555 245.939 253.595 246.546C254.635 247.153 255.424 247.967 255.961 248.99L253.075 250.68C252.815 250.143 252.416 249.718 251.879 249.406C251.359 249.094 250.77 248.938 250.111 248.938C249.106 248.938 248.274 249.276 247.615 249.952C246.956 250.611 246.627 251.46 246.627 252.5C246.627 253.523 246.956 254.372 247.615 255.048C248.274 255.707 249.106 256.036 250.111 256.036C250.787 256.036 251.385 255.889 251.905 255.594C252.442 255.282 252.841 254.857 253.101 254.32L256.013 255.984C255.441 257.007 254.635 257.83 253.595 258.454C252.555 259.061 251.402 259.364 250.137 259.364ZM260.418 253.878C260.868 255.507 262.09 256.322 264.084 256.322C265.366 256.322 266.337 255.889 266.996 255.022L269.7 256.582C268.417 258.437 266.528 259.364 264.032 259.364C261.882 259.364 260.158 258.714 258.858 257.414C257.558 256.114 256.908 254.476 256.908 252.5C256.908 250.541 257.549 248.912 258.832 247.612C260.114 246.295 261.761 245.636 263.772 245.636C265.678 245.636 267.247 246.295 268.478 247.612C269.726 248.929 270.35 250.559 270.35 252.5C270.35 252.933 270.306 253.393 270.22 253.878H260.418ZM260.366 251.278H266.996C266.805 250.394 266.406 249.735 265.8 249.302C265.21 248.869 264.534 248.652 263.772 248.652C262.87 248.652 262.125 248.886 261.536 249.354C260.946 249.805 260.556 250.446 260.366 251.278ZM154.519 272.8C157.015 272.8 159.095 273.675 160.759 275.426C162.44 277.177 163.281 279.335 163.281 281.9C163.281 284.465 162.44 286.623 160.759 288.374C159.095 290.125 157.015 291 154.519 291H147.291V272.8H154.519ZM154.519 287.568C156.096 287.568 157.379 287.048 158.367 286.008C159.355 284.951 159.849 283.581 159.849 281.9C159.849 280.219 159.355 278.858 158.367 277.818C157.379 276.761 156.096 276.232 154.519 276.232H150.879V287.568H154.519ZM168.504 285.878C168.954 287.507 170.176 288.322 172.17 288.322C173.452 288.322 174.423 287.889 175.082 287.022L177.786 288.582C176.503 290.437 174.614 291.364 172.118 291.364C169.968 291.364 168.244 290.714 166.944 289.414C165.644 288.114 164.994 286.476 164.994 284.5C164.994 282.541 165.635 280.912 166.918 279.612C168.2 278.295 169.847 277.636 171.858 277.636C173.764 277.636 175.333 278.295 176.564 279.612C177.812 280.929 178.436 282.559 178.436 284.5C178.436 284.933 178.392 285.393 178.306 285.878H168.504ZM168.452 283.278H175.082C174.891 282.394 174.492 281.735 173.886 281.302C173.296 280.869 172.62 280.652 171.858 280.652C170.956 280.652 170.211 280.886 169.622 281.354C169.032 281.805 168.642 282.446 168.452 283.278ZM183.363 281.692C183.363 282.039 183.589 282.325 184.039 282.55C184.507 282.758 185.071 282.949 185.729 283.122C186.388 283.278 187.047 283.486 187.705 283.746C188.364 283.989 188.919 284.405 189.369 284.994C189.837 285.583 190.071 286.32 190.071 287.204C190.071 288.539 189.569 289.57 188.563 290.298C187.575 291.009 186.336 291.364 184.845 291.364C182.176 291.364 180.356 290.333 179.385 288.27L182.297 286.632C182.679 287.759 183.528 288.322 184.845 288.322C186.041 288.322 186.639 287.949 186.639 287.204C186.639 286.857 186.405 286.58 185.937 286.372C185.487 286.147 184.932 285.947 184.273 285.774C183.615 285.601 182.956 285.384 182.297 285.124C181.639 284.864 181.075 284.457 180.607 283.902C180.157 283.33 179.931 282.619 179.931 281.77C179.931 280.487 180.399 279.482 181.335 278.754C182.289 278.009 183.467 277.636 184.871 277.636C185.929 277.636 186.891 277.879 187.757 278.364C188.624 278.832 189.309 279.508 189.811 280.392L186.951 281.952C186.535 281.068 185.842 280.626 184.871 280.626C184.438 280.626 184.074 280.721 183.779 280.912C183.502 281.103 183.363 281.363 183.363 281.692ZM193.892 276.44C193.338 276.44 192.852 276.241 192.436 275.842C192.038 275.426 191.838 274.941 191.838 274.386C191.838 273.831 192.038 273.346 192.436 272.93C192.852 272.514 193.338 272.306 193.892 272.306C194.464 272.306 194.95 272.514 195.348 272.93C195.764 273.346 195.972 273.831 195.972 274.386C195.972 274.941 195.764 275.426 195.348 275.842C194.95 276.241 194.464 276.44 193.892 276.44ZM192.228 291V278H195.582V291H192.228ZM208.61 278H211.886V290.376C211.886 292.387 211.219 293.921 209.884 294.978C208.567 296.035 206.972 296.564 205.1 296.564C203.696 296.564 202.457 296.295 201.382 295.758C200.325 295.221 199.51 294.432 198.938 293.392L201.798 291.754C202.457 292.967 203.592 293.574 205.204 293.574C206.261 293.574 207.093 293.297 207.7 292.742C208.307 292.187 208.61 291.399 208.61 290.376V288.972C207.622 290.289 206.235 290.948 204.45 290.948C202.613 290.948 201.07 290.307 199.822 289.024C198.591 287.724 197.976 286.147 197.976 284.292C197.976 282.455 198.6 280.886 199.848 279.586C201.096 278.286 202.63 277.636 204.45 277.636C206.235 277.636 207.622 278.295 208.61 279.612V278ZM202.344 286.866C203.037 287.525 203.913 287.854 204.97 287.854C206.027 287.854 206.894 287.525 207.57 286.866C208.263 286.19 208.61 285.332 208.61 284.292C208.61 283.269 208.263 282.429 207.57 281.77C206.894 281.094 206.027 280.756 204.97 280.756C203.913 280.756 203.037 281.094 202.344 281.77C201.668 282.429 201.33 283.269 201.33 284.292C201.33 285.332 201.668 286.19 202.344 286.866ZM222.156 277.636C223.577 277.636 224.747 278.113 225.666 279.066C226.602 280.019 227.07 281.337 227.07 283.018V291H223.716V283.434C223.716 282.567 223.482 281.909 223.014 281.458C222.546 280.99 221.922 280.756 221.142 280.756C220.275 280.756 219.582 281.025 219.062 281.562C218.542 282.099 218.282 282.905 218.282 283.98V291H214.928V278H218.282V279.456C219.096 278.243 220.388 277.636 222.156 277.636Z" fill="#E57347"/>
<rect x="125.877" y="116.016" width="124.417" height="98.3756" stroke="#264E5E" stroke-width="5"/>
<line x1="123.377" y1="128.377" x2="238.59" y2="128.377" stroke="#264E5E" stroke-width="5"/>
<path d="M238.59 165.993V140.741H139.16V164.809H230.304" stroke="#264E5E" stroke-width="5"/>
<path d="M138.371 194.796H164.412M139.555 187.299V175.857H164.412V187.299H139.555Z" stroke="#264E5E" stroke-width="5"/>
<path d="M138.371 203.871H152.97" stroke="#264E5E" stroke-width="5"/>
<path d="M175.46 194.796H201.501M176.644 187.299V175.857H201.501V187.299H176.644Z" stroke="#264E5E" stroke-width="5"/>
<path d="M175.46 203.871H190.059" stroke="#264E5E" stroke-width="5"/>
<path d="M212.549 194.796H238.59M213.733 187.299V175.857H238.59V187.299H213.733Z" stroke="#264E5E" stroke-width="5"/>
<path d="M212.549 203.871H227.148" stroke="#264E5E" stroke-width="5"/>
<line x1="134.443" y1="121.275" x2="138.466" y2="121.303" stroke="#264E5E" stroke-width="5"/>
<line x1="143.123" y1="121.275" x2="147.147" y2="121.303" stroke="#264E5E" stroke-width="5"/>
<line x1="151.803" y1="121.275" x2="155.827" y2="121.303" stroke="#264E5E" stroke-width="5"/>
</svg>
