<svg width="374" height="371" viewBox="0 0 374 371" fill="none" xmlns="http://www.w3.org/2000/svg">
<path d="M156.958 17.6026C175.442 7.0048 198.16 7.0048 216.644 17.6026L318.037 75.7352C336.689 86.4293 348.194 106.286 348.194 127.787V243.33C348.194 264.83 336.689 284.687 318.037 295.381L216.644 353.514C198.16 364.112 175.442 364.112 156.958 353.514L55.5651 295.381C36.9128 284.687 25.4084 264.83 25.4084 243.33V127.787C25.4084 106.286 36.9128 86.4293 55.5651 75.7352L156.958 17.6026Z" fill="#F7F7F7"/>
<path d="M127.476 261.364C125.448 261.364 123.784 260.792 122.484 259.648C121.184 258.504 120.534 256.97 120.534 255.046V242.8H124.096V254.76C124.096 255.713 124.365 256.467 124.902 257.022C125.457 257.577 126.315 257.854 127.476 257.854C128.637 257.854 129.487 257.577 130.024 257.022C130.579 256.467 130.856 255.713 130.856 254.76V242.8H134.444V255.046C134.444 256.97 133.794 258.504 132.494 259.648C131.194 260.792 129.521 261.364 127.476 261.364ZM151.255 261H147.173L143.637 255.072L140.101 261H136.045L141.609 251.666L136.331 242.8H140.387L143.637 248.26L146.887 242.8H150.943L145.665 251.64L151.255 261ZM169.75 261L166.084 254.682H163.354V261H159.766V242.8H167.046C168.728 242.8 170.158 243.389 171.336 244.568C172.515 245.747 173.104 247.168 173.104 248.832C173.104 249.959 172.784 251.007 172.142 251.978C171.501 252.931 170.652 253.651 169.594 254.136L173.624 261H169.75ZM163.354 246.154V251.536H167.046C167.722 251.536 168.303 251.276 168.788 250.756C169.274 250.219 169.516 249.577 169.516 248.832C169.516 248.087 169.274 247.454 168.788 246.934C168.303 246.414 167.722 246.154 167.046 246.154H163.354ZM177.755 255.878C178.205 257.507 179.427 258.322 181.421 258.322C182.703 258.322 183.674 257.889 184.333 257.022L187.037 258.582C185.754 260.437 183.865 261.364 181.369 261.364C179.219 261.364 177.495 260.714 176.195 259.414C174.895 258.114 174.245 256.476 174.245 254.5C174.245 252.541 174.886 250.912 176.169 249.612C177.451 248.295 179.098 247.636 181.109 247.636C183.015 247.636 184.584 248.295 185.815 249.612C187.063 250.929 187.687 252.559 187.687 254.5C187.687 254.933 187.643 255.393 187.557 255.878H177.755ZM177.703 253.278H184.333C184.142 252.394 183.743 251.735 183.137 251.302C182.547 250.869 181.871 250.652 181.109 250.652C180.207 250.652 179.462 250.886 178.873 251.354C178.283 251.805 177.893 252.446 177.703 253.278ZM192.614 251.692C192.614 252.039 192.84 252.325 193.29 252.55C193.758 252.758 194.322 252.949 194.98 253.122C195.639 253.278 196.298 253.486 196.956 253.746C197.615 253.989 198.17 254.405 198.62 254.994C199.088 255.583 199.322 256.32 199.322 257.204C199.322 258.539 198.82 259.57 197.814 260.298C196.826 261.009 195.587 261.364 194.096 261.364C191.427 261.364 189.607 260.333 188.636 258.27L191.548 256.632C191.93 257.759 192.779 258.322 194.096 258.322C195.292 258.322 195.89 257.949 195.89 257.204C195.89 256.857 195.656 256.58 195.188 256.372C194.738 256.147 194.183 255.947 193.524 255.774C192.866 255.601 192.207 255.384 191.548 255.124C190.89 254.864 190.326 254.457 189.858 253.902C189.408 253.33 189.182 252.619 189.182 251.77C189.182 250.487 189.65 249.482 190.586 248.754C191.54 248.009 192.718 247.636 194.122 247.636C195.18 247.636 196.142 247.879 197.008 248.364C197.875 248.832 198.56 249.508 199.062 250.392L196.202 251.952C195.786 251.068 195.093 250.626 194.122 250.626C193.689 250.626 193.325 250.721 193.03 250.912C192.753 251.103 192.614 251.363 192.614 251.692ZM204.136 255.878C204.586 257.507 205.808 258.322 207.802 258.322C209.084 258.322 210.055 257.889 210.714 257.022L213.418 258.582C212.135 260.437 210.246 261.364 207.75 261.364C205.6 261.364 203.876 260.714 202.576 259.414C201.276 258.114 200.626 256.476 200.626 254.5C200.626 252.541 201.267 250.912 202.55 249.612C203.832 248.295 205.479 247.636 207.49 247.636C209.396 247.636 210.965 248.295 212.196 249.612C213.444 250.929 214.068 252.559 214.068 254.5C214.068 254.933 214.024 255.393 213.938 255.878H204.136ZM204.084 253.278H210.714C210.523 252.394 210.124 251.735 209.518 251.302C208.928 250.869 208.252 250.652 207.49 250.652C206.588 250.652 205.843 250.886 205.254 251.354C204.664 251.805 204.274 252.446 204.084 253.278ZM226.187 248H229.541V261H226.187V259.466C225.182 260.731 223.769 261.364 221.949 261.364C220.216 261.364 218.725 260.705 217.477 259.388C216.247 258.053 215.631 256.424 215.631 254.5C215.631 252.576 216.247 250.955 217.477 249.638C218.725 248.303 220.216 247.636 221.949 247.636C223.769 247.636 225.182 248.269 226.187 249.534V248ZM219.999 257.152C220.675 257.828 221.533 258.166 222.573 258.166C223.613 258.166 224.471 257.828 225.147 257.152C225.841 256.459 226.187 255.575 226.187 254.5C226.187 253.425 225.841 252.55 225.147 251.874C224.471 251.181 223.613 250.834 222.573 250.834C221.533 250.834 220.675 251.181 219.999 251.874C219.323 252.55 218.985 253.425 218.985 254.5C218.985 255.575 219.323 256.459 219.999 257.152ZM235.937 250.236C236.249 249.404 236.76 248.78 237.471 248.364C238.199 247.948 239.005 247.74 239.889 247.74V251.484C238.866 251.363 237.947 251.571 237.133 252.108C236.335 252.645 235.937 253.538 235.937 254.786V261H232.583V248H235.937V250.236ZM247.556 261.364C245.597 261.364 243.959 260.705 242.642 259.388C241.342 258.071 240.692 256.441 240.692 254.5C240.692 252.559 241.342 250.929 242.642 249.612C243.959 248.295 245.597 247.636 247.556 247.636C248.821 247.636 249.974 247.939 251.014 248.546C252.054 249.153 252.843 249.967 253.38 250.99L250.494 252.68C250.234 252.143 249.835 251.718 249.298 251.406C248.778 251.094 248.189 250.938 247.53 250.938C246.525 250.938 245.693 251.276 245.034 251.952C244.375 252.611 244.046 253.46 244.046 254.5C244.046 255.523 244.375 256.372 245.034 257.048C245.693 257.707 246.525 258.036 247.53 258.036C248.206 258.036 248.804 257.889 249.324 257.594C249.861 257.282 250.26 256.857 250.52 256.32L253.432 257.984C252.86 259.007 252.054 259.83 251.014 260.454C249.974 261.061 248.821 261.364 247.556 261.364ZM262.434 247.636C263.855 247.636 265.025 248.113 265.944 249.066C266.88 250.019 267.348 251.337 267.348 253.018V261H263.994V253.434C263.994 252.567 263.76 251.909 263.292 251.458C262.824 250.99 262.2 250.756 261.42 250.756C260.553 250.756 259.86 251.025 259.34 251.562C258.82 252.099 258.56 252.905 258.56 253.98V261H255.206V242.8H258.56V249.456C259.375 248.243 260.666 247.636 262.434 247.636Z" fill="#E57347"/>
<line y1="-3" x2="7.22675" y2="-3" transform="matrix(0.174779 -0.984608 -0.979601 -0.200952 160.918 209.889)" stroke="#264E5E" stroke-width="6"/>
<line y1="-3" x2="7.24295" y2="-3" transform="matrix(0.0411537 -0.999153 -0.998869 -0.0475448 184.213 213.599)" stroke="#264E5E" stroke-width="6"/>
<line y1="-3" x2="7.18459" y2="-3" transform="matrix(-0.326415 -0.945226 -0.928774 0.370648 208.99 210.816)" stroke="#264E5E" stroke-width="6"/>
<path d="M186.802 140.693C175.154 140.693 164.37 158.811 176.88 169.596C189.39 180.382 203.194 166.577 202.763 156.655" stroke="#264E5E" stroke-width="6"/>
<path d="M237.705 140.462C237.705 140.462 208.161 115.246 183.781 116.968C155.296 118.98 118.642 159.243 118.642 159.243" stroke="#264E5E" stroke-width="6"/>
<path d="M118.642 156.223C118.642 156.223 156.521 198.168 188.095 197.636C218.806 197.118 254.961 156.223 254.961 156.223L246.764 148.026" stroke="#264E5E" stroke-width="6"/>
<circle cx="186.801" cy="156.655" r="28.06" stroke="#264E5E" stroke-width="6"/>
<line x1="122.672" y1="130.577" x2="126.986" y2="135.754" stroke="#264E5E" stroke-width="6"/>
<line x1="140.258" y1="116.397" x2="143.478" y2="122.317" stroke="#264E5E" stroke-width="6"/>
<line x1="163.865" y1="106.052" x2="165.128" y2="112.671" stroke="#264E5E" stroke-width="6"/>
<line x1="187.21" y1="103.03" x2="187.508" y2="109.762" stroke="#264E5E" stroke-width="6"/>
<line x1="211.803" y1="106.796" x2="209.458" y2="113.113" stroke="#264E5E" stroke-width="6"/>
<line x1="234.625" y1="118.161" x2="230.839" y2="123.736" stroke="#264E5E" stroke-width="6"/>
<line x1="252.7" y1="132.117" x2="248.284" y2="137.207" stroke="#264E5E" stroke-width="6"/>
<line y1="-3" x2="7.04117" y2="-3" transform="matrix(0.612667 -0.790341 -0.744835 -0.667248 120.367 182.064)" stroke="#264E5E" stroke-width="6"/>
<line y1="-3" x2="7.13168" y2="-3" transform="matrix(0.451463 -0.89229 -0.863265 -0.504751 137.623 197.832)" stroke="#264E5E" stroke-width="6"/>
<line y1="-3" x2="7.08828" y2="-3" transform="matrix(-0.534086 -0.84543 -0.807669 0.589636 232.143 199.288)" stroke="#264E5E" stroke-width="6"/>
<line y1="-3" x2="7.03132" y2="-3" transform="matrix(-0.628031 -0.778189 -0.731309 0.682046 250.434 184.586)" stroke="#264E5E" stroke-width="6"/>
</svg>
